<?xml version="1.0" encoding="UTF-8"?>
<svg width="512px" height="512px" viewBox="0 0 512 512" version="1.1" xmlns="http://www.w3.org/2000/svg" xmlns:xlink="http://www.w3.org/1999/xlink">
    <title>favicon</title>
    <g id="Page-1" stroke="none" stroke-width="1" fill="none" fill-rule="evenodd">
        <g id="favicon">
            <rect id="Rectangle" fill="#03A98F" x="0" y="0" width="512" height="512"></rect>
            <g id="DB" transform="translate(50.000000, 72.500000)" fill="#1C1E1E" fill-rule="nonzero">
                <path d="M0,367.5 L0,0 L78.5,0 C88.5,0 98.3333333,0.833333333 108,2.5 C117.666667,4.16666667 126.916667,7.08333333 135.75,11.25 C144.583333,15.4166667 152.666667,20.8333333 160,27.5 C167.333333,34.1666667 173.25,41.8333333 177.75,50.5 C182.25,59.1666667 185.416667,68.3333333 187.25,78 C189.083333,87.6666667 190,97.3333333 190,107 L190,260 C190,270 189.083333,279.833333 187.25,289.5 C185.416667,299.166667 182.25,308.333333 177.75,317 C173.25,325.666667 167.333333,333.333333 160,340 C152.666667,346.666667 144.583333,352.083333 135.75,356.25 C126.916667,360.416667 117.666667,363.333333 108,365 C98.3333333,366.666667 88.5,367.5 78.5,367.5 L0,367.5 Z M78.5,332.5 C85.1666667,332.5 91.6666667,331.916667 98,330.75 C104.333333,329.583333 110.416667,327.583333 116.25,324.75 C122.083333,321.916667 127.333333,318.166667 132,313.5 C136.666667,308.833333 140.416667,303.583333 143.25,297.75 C146.083333,291.916667 148.083333,285.833333 149.25,279.5 C150.416667,273.166667 151,266.666667 151,260 L151,107 C151,100.666667 150.416667,94.3333333 149.25,88 C148.083333,81.6666667 146.083333,75.5833333 143.25,69.75 C140.416667,63.9166667 136.666667,58.6666667 132,54 C127.333333,49.3333333 122.083333,45.5833333 116.25,42.75 C110.416667,39.9166667 104.333333,37.9166667 98,36.75 C91.6666667,35.5833333 85.3333333,35 79,35 L39,35 L39,332.5 L78.5,332.5 Z" id="Shape"></path>
                <path d="M218,367.5 L218,0 L302.5,0 C311.166667,0 319.75,0.75 328.25,2.25 C336.75,3.75 344.833333,6.41666667 352.5,10.25 C360.166667,14.0833333 367.083333,19.0833333 373.25,25.25 C379.416667,31.4166667 384.5,38.4166667 388.5,46.25 C392.5,54.0833333 395.25,62.25 396.75,70.75 C398.25,79.25 399,87.8333333 399,96.5 C399,104.5 398.25,112.583333 396.75,120.75 C395.25,128.916667 392.5,136.5 388.5,143.5 C384.5,150.5 379.5,156.833333 373.5,162.5 C367.5,168.166667 360.833333,172.666667 353.5,176 C362.166667,179.333333 370.416667,183.833333 378.25,189.5 C386.083333,195.166667 392.583333,202 397.75,210 C402.916667,218 406.583333,226.666667 408.75,236 C410.916667,245.333333 412,254.833333 412,264.5 C412,273.833333 411.083333,283.25 409.25,292.75 C407.416667,302.25 404.166667,311.166667 399.5,319.5 C394.833333,327.833333 388.916667,335.166667 381.75,341.5 C374.583333,347.833333 366.666667,353 358,357 C349.333333,361 340.25,363.75 330.75,365.25 C321.25,366.75 311.833333,367.5 302.5,367.5 L218,367.5 Z M302.5,159.5 C310.5,159.5 318.416667,158.166667 326.25,155.5 C334.083333,152.833333 340.666667,148.416667 346,142.25 C351.333333,136.083333 355,129.083333 357,121.25 C359,113.416667 360,105.333333 360,97 C360,89 359,81.0833333 357,73.25 C355,65.4166667 351.333333,58.4166667 346,52.25 C340.666667,46.0833333 334.083333,41.6666667 326.25,39 C318.416667,36.3333333 310.5,35 302.5,35 L257,35 L257,159.5 L302.5,159.5 Z M302.5,332.5 C308.833333,332.5 315.083333,332 321.25,331 C327.416667,330 333.25,328.166667 338.75,325.5 C344.25,322.833333 349.333333,319.25 354,314.75 C358.666667,310.25 362.5,305.25 365.5,299.75 C368.5,294.25 370.5,288.416667 371.5,282.25 C372.5,276.083333 373,269.833333 373,263.5 C373,257.5 372.5,251.333333 371.5,245 C370.5,238.666667 368.5,232.75 365.5,227.25 C362.5,221.75 358.75,216.833333 354.25,212.5 C349.75,208.166667 344.666667,204.583333 339,201.75 C333.333333,198.916667 327.416667,197 321.25,196 C315.083333,195 308.833333,194.5 302.5,194.5 L257,194.5 L257,332.5 L302.5,332.5 Z" id="Shape"></path>
            </g>
        </g>
    </g>
</svg>