<?xml version="1.0" standalone="no"?>
<!DOCTYPE svg PUBLIC "-//W3C//DTD SVG 20010904//EN"
 "http://www.w3.org/TR/2001/REC-SVG-20010904/DTD/svg10.dtd">
<svg version="1.0" xmlns="http://www.w3.org/2000/svg"
 width="700.000000pt" height="700.000000pt" viewBox="0 0 700.000000 700.000000"
 preserveAspectRatio="xMidYMid meet">
<metadata>
Created by potrace 1.14, written by Peter Selinger 2001-2017
</metadata>
<g transform="translate(0.000000,700.000000) scale(0.100000,-0.100000)"
fill="#000000" stroke="none">
<path d="M682 3498 l3 -2513 615 0 c642 1 724 5 919 47 270 57 519 192 699
375 172 176 282 405 335 694 l22 124 0 1270 0 1270 -23 129 c-56 311 -175 544
-370 727 -242 226 -524 341 -927 379 -60 5 -372 10 -693 10 l-582 0 2 -2512z
m1248 2021 c245 -30 428 -115 572 -266 109 -116 178 -251 221 -438 20 -88 21
-118 25 -1235 3 -1190 1 -1299 -38 -1450 -69 -270 -221 -457 -463 -570 -168
-79 -324 -100 -743 -100 l-284 0 0 2035 0 2035 313 0 c172 0 351 -5 397 -11z"/>
<path d="M3662 3498 l3 -2513 540 -3 c582 -3 834 6 1015 37 486 83 871 397
1015 826 109 323 104 790 -10 1087 -107 275 -289 466 -590 617 l-116 58 31 13
c97 40 244 158 334 269 180 220 249 437 250 796 1 317 -49 541 -166 740 -181
308 -467 500 -838 561 -91 15 -198 18 -788 21 l-682 4 2 -2513z m1320 2017
c180 -31 299 -88 402 -191 150 -151 217 -350 217 -643 0 -299 -67 -494 -222
-650 -76 -77 -188 -139 -314 -173 -74 -20 -107 -22 -472 -26 l-393 -3 0 850 0
851 349 0 c262 0 369 -4 433 -15z m39 -2179 c234 -32 413 -125 558 -291 153
-176 210 -379 198 -704 -11 -286 -65 -431 -225 -602 -125 -133 -261 -209 -451
-250 -86 -19 -138 -22 -498 -26 l-403 -5 0 946 0 946 358 0 c249 0 389 -5 463
-14z"/>
</g>
</svg>
